<svg width="20" height="21" viewBox="0 0 20 21" fill="none" xmlns="http://www.w3.org/2000/svg">
<path d="M19 9.5H17.41L18.71 8.21C18.8032 8.11676 18.8772 8.00607 18.9277 7.88425C18.9781 7.76243 19.0041 7.63186 19.0041 7.5C19.0041 7.36814 18.9781 7.23757 18.9277 7.11575C18.8772 6.99393 18.8032 6.88324 18.71 6.79C18.6168 6.69676 18.5061 6.6228 18.3842 6.57234C18.2624 6.52188 18.1319 6.49591 18 6.49591C17.8681 6.49591 17.7376 6.52188 17.6158 6.57234C17.4939 6.6228 17.3832 6.69676 17.29 6.79L14.59 9.5H12.41L14.71 7.21C14.8032 7.11676 14.8772 7.00607 14.9277 6.88425C14.9781 6.76243 15.0041 6.63186 15.0041 6.5C15.0041 6.36814 14.9781 6.23757 14.9277 6.11575C14.8772 5.99393 14.8032 5.88324 14.71 5.79C14.6168 5.69676 14.5061 5.6228 14.3842 5.57234C14.2624 5.52188 14.1319 5.49591 14 5.49591C13.8681 5.49591 13.7376 5.52188 13.6158 5.57234C13.4939 5.6228 13.3832 5.69676 13.29 5.79L11 8.09V5.91L13.71 3.21C13.8032 3.11676 13.8772 3.00607 13.9277 2.88425C13.9781 2.76243 14.0041 2.63186 14.0041 2.5C14.0041 2.36814 13.9781 2.23757 13.9277 2.11575C13.8772 1.99393 13.8032 1.88324 13.71 1.79C13.6168 1.69676 13.5061 1.6228 13.3842 1.57234C13.2624 1.52188 13.1319 1.49591 13 1.49591C12.7337 1.49591 12.4783 1.6017 12.29 1.79L11 3.09V1.5C11 1.23478 10.8946 0.98043 10.7071 0.792893C10.5196 0.605357 10.2652 0.5 10 0.5C9.73478 0.5 9.48043 0.605357 9.29289 0.792893C9.10536 0.98043 9 1.23478 9 1.5V3.09L7.71 1.79C7.5217 1.6017 7.2663 1.49591 7 1.49591C6.7337 1.49591 6.4783 1.6017 6.29 1.79C6.1017 1.9783 5.99591 2.2337 5.99591 2.5C5.99591 2.7663 6.1017 3.0217 6.29 3.21L9 5.91V8.09L6.71 5.79C6.61676 5.69676 6.50607 5.6228 6.38425 5.57234C6.26243 5.52188 6.13186 5.49591 6 5.49591C5.86814 5.49591 5.73757 5.52188 5.61575 5.57234C5.49393 5.6228 5.38324 5.69676 5.29 5.79C5.19676 5.88324 5.1228 5.99393 5.07234 6.11575C5.02188 6.23757 4.99591 6.36814 4.99591 6.5C4.99591 6.63186 5.02188 6.76243 5.07234 6.88425C5.1228 7.00607 5.19676 7.11676 5.29 7.21L7.59 9.5H5.41L2.71 6.79C2.5217 6.6017 2.2663 6.49591 2 6.49591C1.7337 6.49591 1.4783 6.6017 1.29 6.79C1.1017 6.9783 0.995908 7.2337 0.995908 7.5C0.995908 7.7663 1.1017 8.0217 1.29 8.21L2.59 9.5H1C0.734784 9.5 0.48043 9.60536 0.292893 9.79289C0.105357 9.98043 0 10.2348 0 10.5C0 10.7652 0.105357 11.0196 0.292893 11.2071C0.48043 11.3946 0.734784 11.5 1 11.5H2.59L1.29 12.79C1.19627 12.883 1.12188 12.9936 1.07111 13.1154C1.02034 13.2373 0.994202 13.368 0.994202 13.5C0.994202 13.632 1.02034 13.7627 1.07111 13.8846C1.12188 14.0064 1.19627 14.117 1.29 14.21C1.38296 14.3037 1.49356 14.3781 1.61542 14.4289C1.73728 14.4797 1.86799 14.5058 2 14.5058C2.13201 14.5058 2.26272 14.4797 2.38458 14.4289C2.50644 14.3781 2.61704 14.3037 2.71 14.21L5.41 11.5H7.59L5.29 13.79C5.19627 13.883 5.12188 13.9936 5.07111 14.1154C5.02034 14.2373 4.9942 14.368 4.9942 14.5C4.9942 14.632 5.02034 14.7627 5.07111 14.8846C5.12188 15.0064 5.19627 15.117 5.29 15.21C5.38296 15.3037 5.49356 15.3781 5.61542 15.4289C5.73728 15.4797 5.86799 15.5058 6 15.5058C6.13201 15.5058 6.26272 15.4797 6.38458 15.4289C6.50644 15.3781 6.61704 15.3037 6.71 15.21L9 12.91V15.09L6.29 17.79C6.1017 17.9783 5.99591 18.2337 5.99591 18.5C5.99591 18.7663 6.1017 19.0217 6.29 19.21C6.4783 19.3983 6.7337 19.5041 7 19.5041C7.2663 19.5041 7.5217 19.3983 7.71 19.21L9 17.91V19.5C9 19.7652 9.10536 20.0196 9.29289 20.2071C9.48043 20.3946 9.73478 20.5 10 20.5C10.2652 20.5 10.5196 20.3946 10.7071 20.2071C10.8946 20.0196 11 19.7652 11 19.5V17.91L12.29 19.21C12.383 19.3037 12.4936 19.3781 12.6154 19.4289C12.7373 19.4797 12.868 19.5058 13 19.5058C13.132 19.5058 13.2627 19.4797 13.3846 19.4289C13.5064 19.3781 13.617 19.3037 13.71 19.21C13.8037 19.117 13.8781 19.0064 13.9289 18.8846C13.9797 18.7627 14.0058 18.632 14.0058 18.5C14.0058 18.368 13.9797 18.2373 13.9289 18.1154C13.8781 17.9936 13.8037 17.883 13.71 17.79L11 15.09V12.91L13.29 15.21C13.383 15.3037 13.4936 15.3781 13.6154 15.4289C13.7373 15.4797 13.868 15.5058 14 15.5058C14.132 15.5058 14.2627 15.4797 14.3846 15.4289C14.5064 15.3781 14.617 15.3037 14.71 15.21C14.8037 15.117 14.8781 15.0064 14.9289 14.8846C14.9797 14.7627 15.0058 14.632 15.0058 14.5C15.0058 14.368 14.9797 14.2373 14.9289 14.1154C14.8781 13.9936 14.8037 13.883 14.71 13.79L12.41 11.5H14.59L17.29 14.21C17.383 14.3037 17.4936 14.3781 17.6154 14.4289C17.7373 14.4797 17.868 14.5058 18 14.5058C18.132 14.5058 18.2627 14.4797 18.3846 14.4289C18.5064 14.3781 18.617 14.3037 18.71 14.21C18.8037 14.117 18.8781 14.0064 18.9289 13.8846C18.9797 13.7627 19.0058 13.632 19.0058 13.5C19.0058 13.368 18.9797 13.2373 18.9289 13.1154C18.8781 12.9936 18.8037 12.883 18.71 12.79L17.41 11.5H19C19.2652 11.5 19.5196 11.3946 19.7071 11.2071C19.8946 11.0196 20 10.7652 20 10.5C20 10.2348 19.8946 9.98043 19.7071 9.79289C19.5196 9.60536 19.2652 9.5 19 9.5Z" fill="#2871FF"/>
</svg>
