<svg width="22" height="23" viewBox="0 0 22 23" fill="none" xmlns="http://www.w3.org/2000/svg">
<path d="M15.205 12.6896C14.1758 14.2426 13.0605 15.7367 11.8643 17.1649C11.7331 17.316 11.5643 17.4298 11.3751 17.4949V22.3836L15.9747 20.7414L15.205 12.6896ZM10.1276 17.1611C8.92998 15.7353 7.8146 14.2423 6.78684 12.6896L6.02845 20.7414L10.6167 22.3836V17.4949C10.4265 17.4299 10.2574 17.3146 10.1276 17.1611ZM16.7369 20.7793L21.4845 22.4746C21.5478 22.4991 21.6166 22.506 21.6836 22.4948C21.7506 22.4835 21.8133 22.4545 21.8653 22.4107C21.9172 22.3669 21.9564 22.3099 21.9788 22.2458C22.0012 22.1817 22.006 22.1127 21.9926 22.0461L20.4758 14.0815C20.4636 14.0202 20.4365 13.9628 20.3968 13.9145C20.3571 13.8662 20.3061 13.8284 20.2483 13.8046L15.9027 11.9955L16.7369 20.7793ZM0.507362 22.4746L5.25489 20.7793L6.08912 11.9955L1.75112 13.8046C1.69332 13.8284 1.6423 13.8662 1.60261 13.9145C1.56291 13.9628 1.53577 14.0202 1.52361 14.0815L0.00682348 22.0461C-0.00581489 22.1118 -0.000836064 22.1797 0.0212544 22.2429C0.0433448 22.3061 0.08176 22.3623 0.132598 22.4058C0.183436 22.4493 0.244887 22.4786 0.310708 22.4907C0.37653 22.5028 0.444378 22.4973 0.507362 22.4746ZM11.2841 16.6757C11.523 16.395 17.063 9.81096 17.063 6.56825C17.063 4.95885 16.4238 3.41536 15.286 2.27735C14.1482 1.13933 12.605 0.5 10.9959 0.5C9.38681 0.5 7.84361 1.13933 6.7058 2.27735C5.56799 3.41536 4.92878 4.95885 4.92878 6.56825C4.92878 9.81096 10.4688 16.395 10.7077 16.6757C10.7433 16.7173 10.7875 16.7507 10.8373 16.7737C10.887 16.7966 10.9411 16.8084 10.9959 16.8084C11.0507 16.8084 11.1048 16.7966 11.1546 16.7737C11.2043 16.7507 11.2485 16.7173 11.2841 16.6757ZM8.34154 6.56825C8.34154 6.04316 8.49722 5.52987 8.78888 5.09329C9.08055 4.6567 9.4951 4.31642 9.98013 4.11548C10.4651 3.91454 10.9989 3.86196 11.5138 3.9644C12.0286 4.06684 12.5016 4.31969 12.8728 4.69098C13.2441 5.06227 13.4969 5.53532 13.5993 6.05031C13.7017 6.5653 13.6491 7.0991 13.4482 7.58422C13.2473 8.06933 12.9071 8.48396 12.4706 8.77568C12.0341 9.0674 11.5209 9.2231 10.9959 9.2231C10.2919 9.2231 9.61678 8.9434 9.11899 8.44551C8.6212 7.94763 8.34154 7.27236 8.34154 6.56825Z" fill="#2871FF"/>
</svg>
