<svg width="20" height="21" viewBox="0 0 20 21" fill="none" xmlns="http://www.w3.org/2000/svg">
<path d="M12 3.6V0.5H8V3.6H4L0 7.5H20L16 3.6H12Z" fill="#2871FF"/>
<path d="M5 9.5H3V12.5H5V9.5Z" fill="#2871FF"/>
<path d="M5 14.5H3V17.5H5V14.5Z" fill="#2871FF"/>
<path d="M9 12.5H7V15.5H9V12.5Z" fill="#2871FF"/>
<path d="M9 17.5H7V20.5H9V17.5Z" fill="#2871FF"/>
<path d="M13 9.5H11V12.5H13V9.5Z" fill="#2871FF"/>
<path d="M13 14.5H11V17.5H13V14.5Z" fill="#2871FF"/>
<path d="M17 12.5H15V15.5H17V12.5Z" fill="#2871FF"/>
<path d="M17 17.5H15V20.5H17V17.5Z" fill="#2871FF"/>
</svg>
