<svg width="22" height="19" viewBox="0 0 22 19" fill="none" xmlns="http://www.w3.org/2000/svg">
<g clip-path="url(#clip0_716_20549)">
<path d="M3.39749 10.6382V17.8796C3.39749 18.0716 3.3212 18.2558 3.1854 18.3916C3.0496 18.5274 2.86541 18.6037 2.67336 18.6037C2.4813 18.6037 2.29712 18.5274 2.16131 18.3916C2.02551 18.2558 1.94922 18.0716 1.94922 17.8796V10.6382C1.94922 10.4461 2.02551 10.262 2.16131 10.1262C2.29712 9.99036 2.4813 9.91406 2.67336 9.91406C2.86541 9.91406 3.0496 9.99036 3.1854 10.1262C3.3212 10.262 3.39749 10.4461 3.39749 10.6382Z" fill="#2871FF"/>
<path d="M1.94922 10.6377H20.0527V17.1549H1.94922V10.6377Z" fill="#2871FF"/>
<path d="M3.39648 4.84476V9.18959H4.84476V8.46545C4.84476 8.2734 4.92105 8.08921 5.05686 7.95341C5.19266 7.81761 5.37684 7.74131 5.5689 7.74131H9.55166C9.74371 7.74131 9.9279 7.81761 10.0637 7.95341C10.1995 8.08921 10.2758 8.2734 10.2758 8.46545V9.19538H11.7241V8.46545C11.7241 8.2734 11.8004 8.08921 11.9362 7.95341C12.072 7.81761 12.2562 7.74131 12.4482 7.74131H16.431C16.623 7.74131 16.8072 7.81761 16.943 7.95341C17.0788 8.08921 17.1551 8.2734 17.1551 8.46545V9.18959H18.6034V4.84476C18.6034 4.46065 18.4508 4.09228 18.1792 3.82067C17.9076 3.54907 17.5392 3.39648 17.1551 3.39648H4.84476C4.46065 3.39648 4.09228 3.54907 3.82067 3.82067C3.54907 4.09228 3.39648 4.46065 3.39648 4.84476Z" fill="#2871FF"/>
<path d="M20.0518 10.6382V17.8796C20.0518 18.0716 19.9755 18.2558 19.8397 18.3916C19.7039 18.5274 19.5197 18.6037 19.3277 18.6037C19.1356 18.6037 18.9514 18.5274 18.8156 18.3916C18.6798 18.2558 18.6035 18.0716 18.6035 17.8796V10.6382C18.6035 10.4461 18.6798 10.262 18.8156 10.1262C18.9514 9.99036 19.1356 9.91406 19.3277 9.91406C19.5197 9.91406 19.7039 9.99036 19.8397 10.1262C19.9755 10.262 20.0518 10.4461 20.0518 10.6382Z" fill="#2871FF"/>
</g>
<defs>
<clipPath id="clip0_716_20549">
<rect width="21" height="18" fill="white" transform="translate(0.5 0.5)"/>
</clipPath>
</defs>
</svg>
