<svg width="20" height="21" viewBox="0 0 20 21" fill="none" xmlns="http://www.w3.org/2000/svg">
<path d="M17 2.5H16V1.5C16 0.9 15.6 0.5 15 0.5C14.4 0.5 14 0.9 14 1.5V2.5H6V1.5C6 0.9 5.6 0.5 5 0.5C4.4 0.5 4 0.9 4 1.5V2.5H3C1.3 2.5 0 3.8 0 5.5V6.5H20V5.5C20 3.8 18.7 2.5 17 2.5ZM0 17.5C0 19.2 1.3 20.5 3 20.5H17C18.7 20.5 20 19.2 20 17.5V8.5H0V17.5ZM15 10.5C15.6 10.5 16 10.9 16 11.5C16 12.1 15.6 12.5 15 12.5C14.4 12.5 14 12.1 14 11.5C14 10.9 14.4 10.5 15 10.5ZM15 14.5C15.6 14.5 16 14.9 16 15.5C16 16.1 15.6 16.5 15 16.5C14.4 16.5 14 16.1 14 15.5C14 14.9 14.4 14.5 15 14.5ZM10 10.5C10.6 10.5 11 10.9 11 11.5C11 12.1 10.6 12.5 10 12.5C9.4 12.5 9 12.1 9 11.5C9 10.9 9.4 10.5 10 10.5ZM10 14.5C10.6 14.5 11 14.9 11 15.5C11 16.1 10.6 16.5 10 16.5C9.4 16.5 9 16.1 9 15.5C9 14.9 9.4 14.5 10 14.5ZM5 10.5C5.6 10.5 6 10.9 6 11.5C6 12.1 5.6 12.5 5 12.5C4.4 12.5 4 12.1 4 11.5C4 10.9 4.4 10.5 5 10.5ZM5 14.5C5.6 14.5 6 14.9 6 15.5C6 16.1 5.6 16.5 5 16.5C4.4 16.5 4 16.1 4 15.5C4 14.9 4.4 14.5 5 14.5Z" fill="#2871FF"/>
</svg>
