<svg width="16" height="18" viewBox="0 0 16 18" fill="none" xmlns="http://www.w3.org/2000/svg">
<path d="M5.58718 16.4573V13.8583C5.58718 13.1948 6.12393 12.657 6.78605 12.657H9.20641C9.52437 12.657 9.82931 12.7835 10.0541 13.0088C10.279 13.2341 10.4053 13.5397 10.4053 13.8583V16.4573C10.4033 16.7332 10.5112 16.9984 10.7052 17.1941C10.8991 17.3899 11.163 17.5 11.4383 17.5H13.0895C13.8607 17.502 14.6011 17.1964 15.1471 16.6507C15.6931 16.1049 16 15.3639 16 14.5911V7.18683C16 6.56259 15.7238 5.97046 15.246 5.56997L9.62865 1.07449C8.6515 0.286278 7.25146 0.311727 6.30349 1.13493L0.814326 5.56997C0.313887 5.95866 0.0147809 6.55254 0 7.18683V14.5836C0 16.1943 1.30306 17.5 2.91046 17.5H4.52403C5.09577 17.5 5.56042 17.0378 5.56456 16.4649L5.58718 16.4573Z" fill="#2871FF"/>
</svg>
