<svg width="20" height="20" viewBox="0 0 20 20" fill="none" xmlns="http://www.w3.org/2000/svg">
<path d="M19.9892 2.86207C19.9868 2.8446 19.9832 2.82733 19.9783 2.8104C19.962 2.73937 19.9269 2.67404 19.8767 2.62123L17.3775 0.121997C17.2994 0.0438825 17.1934 0 17.0829 0C16.9724 0 16.8665 0.0438825 16.7883 0.121997L14.2892 2.62123C14.2267 2.68731 14.1873 2.77177 14.1767 2.86207C14.175 2.8804 14.1667 2.89707 14.1667 2.91623V5.83298H5.83333V2.91623C5.83333 2.89707 5.825 2.8804 5.8225 2.86207C5.82018 2.8446 5.81656 2.82733 5.81167 2.8104C5.79534 2.73937 5.76023 2.67404 5.71 2.62123L3.21083 0.121997C3.1327 0.0438825 3.02674 0 2.91625 0C2.80576 0 2.6998 0.0438825 2.62167 0.121997L0.1225 2.62123C0.0596968 2.6873 0.020446 2.77225 0.0108333 2.8629C0.00833333 2.88123 0 2.89707 0 2.91623V19.5833C0 19.6938 0.0438987 19.7998 0.122039 19.878C0.200179 19.9561 0.30616 20 0.416667 20H5.41667C5.52717 20 5.63315 19.9561 5.71129 19.878C5.78943 19.7998 5.83333 19.6938 5.83333 19.5833V14.9999H14.1667V19.5833C14.1667 19.6938 14.2106 19.7998 14.2887 19.878C14.3668 19.9561 14.4728 20 14.5833 20H19.5833C19.6938 20 19.7998 19.9561 19.878 19.878C19.9561 19.7998 20 19.6938 20 19.5833V2.91623C20 2.89707 19.9917 2.8804 19.9892 2.86207ZM1.66667 7.91636C1.66667 7.80553 1.71083 7.69969 1.78833 7.62135L2.62167 6.788C2.6998 6.70988 2.80576 6.666 2.91625 6.666C3.02674 6.666 3.1327 6.70988 3.21083 6.788L4.04417 7.62135C4.08299 7.66005 4.11379 7.70603 4.13481 7.75665C4.15583 7.80728 4.16666 7.86155 4.16667 7.91636V9.58307C4.16667 9.69358 4.12277 9.79956 4.04463 9.87771C3.96649 9.95585 3.86051 9.99975 3.75 9.99975H2.08333C1.97283 9.99975 1.86685 9.95585 1.78871 9.87771C1.71057 9.79956 1.66667 9.69358 1.66667 9.58307V7.91636ZM1.66667 12.9165C1.66667 12.8057 1.71083 12.6998 1.78833 12.6215L2.62167 11.7881C2.6998 11.71 2.80576 11.6661 2.91625 11.6661C3.02674 11.6661 3.1327 11.71 3.21083 11.7881L4.04417 12.6215C4.08299 12.6602 4.11379 12.7062 4.13481 12.7568C4.15583 12.8074 4.16666 12.8617 4.16667 12.9165V14.5832C4.16667 14.6937 4.12277 14.7997 4.04463 14.8778C3.96649 14.956 3.86051 14.9999 3.75 14.9999H2.08333C1.97283 14.9999 1.86685 14.956 1.78871 14.8778C1.71057 14.7997 1.66667 14.6937 1.66667 14.5832V12.9165ZM4.58333 18.3333H1.25C1.13949 18.3333 1.03351 18.2894 0.955372 18.2113C0.877232 18.1331 0.833333 18.0271 0.833333 17.9166C0.833333 17.8061 0.877232 17.7001 0.955372 17.622C1.03351 17.5438 1.13949 17.4999 1.25 17.4999H4.58333C4.69384 17.4999 4.79982 17.5438 4.87796 17.622C4.9561 17.7001 5 17.8061 5 17.9166C5 18.0271 4.9561 18.1331 4.87796 18.2113C4.79982 18.2894 4.69384 18.3333 4.58333 18.3333ZM14.1667 11.6665H5.83333V6.66633H14.1667V11.6665ZM15.8333 7.91636C15.8333 7.80553 15.8775 7.69969 15.955 7.62135L16.7883 6.788C16.8665 6.70988 16.9724 6.666 17.0829 6.666C17.1934 6.666 17.2994 6.70988 17.3775 6.788L18.2108 7.62135C18.2497 7.66005 18.2805 7.70603 18.3015 7.75665C18.3225 7.80728 18.3333 7.86155 18.3333 7.91636V9.58307C18.3333 9.69358 18.2894 9.79956 18.2113 9.87771C18.1332 9.95585 18.0272 9.99975 17.9167 9.99975H16.25C16.1395 9.99975 16.0335 9.95585 15.9554 9.87771C15.8772 9.79956 15.8333 9.69358 15.8333 9.58307V7.91636ZM15.8333 12.9165C15.8333 12.8057 15.8775 12.6998 15.955 12.6215L16.7883 11.7881C16.8665 11.71 16.9724 11.6661 17.0829 11.6661C17.1934 11.6661 17.2994 11.71 17.3775 11.7881L18.2108 12.6215C18.2497 12.6602 18.2805 12.7062 18.3015 12.7568C18.3225 12.8074 18.3333 12.8617 18.3333 12.9165V14.5832C18.3333 14.6937 18.2894 14.7997 18.2113 14.8778C18.1332 14.956 18.0272 14.9999 17.9167 14.9999H16.25C16.1395 14.9999 16.0335 14.956 15.9554 14.8778C15.8772 14.7997 15.8333 14.6937 15.8333 14.5832V12.9165ZM18.75 18.3333H15.4167C15.3062 18.3333 15.2002 18.2894 15.122 18.2113C15.0439 18.1331 15 18.0271 15 17.9166C15 17.8061 15.0439 17.7001 15.122 17.622C15.2002 17.5438 15.3062 17.4999 15.4167 17.4999H18.75C18.8605 17.4999 18.9665 17.5438 19.0446 17.622C19.1228 17.7001 19.1667 17.8061 19.1667 17.9166C19.1667 18.0271 19.1228 18.1331 19.0446 18.2113C18.9665 18.2894 18.8605 18.3333 18.75 18.3333Z" fill="#2871FF"/>
</svg>
