<svg width="167" height="45" viewBox="0 0 167 45" fill="none" xmlns="http://www.w3.org/2000/svg">
<path d="M16.7155 0.271484V4.52793H11.507V16.2619H16.4732V18.5627H6.17746L0 24.4297L6.29859 30.4117H16.7155V44.3315H23.862V30.1817H31.493V18.5627H23.862V16.2619H36.9437L43 10.51L36.7014 4.52793H23.862V0.271484H16.7155Z" fill="url(#paint0_linear_901_4501)"/>
<path d="M56.1545 31.0406C55.119 31.0406 54.1547 30.8529 53.2616 30.4776C52.3814 30.1022 51.6113 29.578 50.9512 28.9049C50.291 28.2318 49.7733 27.4423 49.3979 26.5362C49.0355 25.6302 48.8543 24.64 48.8543 23.5656C48.8543 22.4913 49.0355 21.5011 49.3979 20.5951C49.7603 19.6761 50.2716 18.8865 50.9317 18.2264C51.5919 17.5533 52.362 17.0356 53.2422 16.6732C54.1353 16.2978 55.1061 16.1101 56.1545 16.1101C57.2029 16.1101 58.1413 16.2848 58.9697 16.6343C59.8111 16.9838 60.523 17.4498 61.1054 18.0322C61.6879 18.6147 62.1021 19.2619 62.348 19.9738L59.6881 21.2552C59.4422 20.5563 59.0086 19.9803 58.3873 19.5272C57.7789 19.0613 57.0347 18.8283 56.1545 18.8283C55.3002 18.8283 54.5495 19.0289 53.9023 19.4302C53.2551 19.8314 52.7503 20.388 52.3879 21.0999C52.0384 21.7988 51.8637 22.6208 51.8637 23.5656C51.8637 24.5105 52.0384 25.3389 52.3879 26.0508C52.7503 26.7627 53.2551 27.3193 53.9023 27.7206C54.5495 28.1218 55.3002 28.3224 56.1545 28.3224C57.0347 28.3224 57.7789 28.0959 58.3873 27.6429C59.0086 27.1769 59.4422 26.5945 59.6881 25.8955L62.348 27.1769C62.1021 27.8888 61.6879 28.536 61.1054 29.1185C60.523 29.7009 59.8111 30.1669 58.9697 30.5164C58.1413 30.8659 57.2029 31.0406 56.1545 31.0406ZM64.0655 30.8076V20.2068H66.7837V22.7502L66.5896 22.3813C66.8225 21.4882 67.2044 20.8863 67.7351 20.5757C68.2787 20.2521 68.9194 20.0903 69.6572 20.0903H70.2785V22.6143H69.366C68.6541 22.6143 68.0781 22.8343 67.638 23.2744C67.1979 23.7016 66.9779 24.3099 66.9779 25.0995V30.8076H64.0655ZM76.8165 31.0406C75.7681 31.0406 74.8102 30.8011 73.943 30.3222C73.0887 29.8433 72.4027 29.1897 71.885 28.3613C71.3802 27.5199 71.1278 26.5686 71.1278 25.5072C71.1278 24.4329 71.3802 23.4815 71.885 22.6531C72.4027 21.8247 73.0887 21.1711 73.943 20.6922C74.8102 20.2132 75.7681 19.9738 76.8165 19.9738C77.8649 19.9738 78.8163 20.2132 79.6706 20.6922C80.5248 21.1711 81.2044 21.8247 81.7092 22.6531C82.2269 23.4815 82.4858 24.4329 82.4858 25.5072C82.4858 26.5686 82.2269 27.5199 81.7092 28.3613C81.2044 29.1897 80.5248 29.8433 79.6706 30.3222C78.8163 30.8011 77.8649 31.0406 76.8165 31.0406ZM76.8165 28.4195C77.3472 28.4195 77.8067 28.2966 78.195 28.0506C78.5962 27.8047 78.9069 27.4617 79.1269 27.0216C79.3599 26.5815 79.4764 26.0767 79.4764 25.5072C79.4764 24.9377 79.3599 24.4393 79.1269 24.0122C78.9069 23.5721 78.5962 23.2291 78.195 22.9832C77.8067 22.7243 77.3472 22.5949 76.8165 22.5949C76.2858 22.5949 75.8198 22.7243 75.4186 22.9832C75.0173 23.2291 74.7002 23.5721 74.4672 24.0122C74.2472 24.4393 74.1372 24.9377 74.1372 25.5072C74.1372 26.0767 74.2472 26.5815 74.4672 27.0216C74.7002 27.4617 75.0173 27.8047 75.4186 28.0506C75.8198 28.2966 76.2858 28.4195 76.8165 28.4195ZM88.3564 31.0406C87.1915 31.0406 86.1754 30.7688 85.3082 30.2252C84.4539 29.6686 83.8714 28.9243 83.5608 27.9924L85.6965 26.9828C85.9683 27.5523 86.3372 27.9988 86.8032 28.3224C87.2691 28.646 87.7869 28.8078 88.3564 28.8078C88.7706 28.8078 89.0877 28.7237 89.3078 28.5554C89.5278 28.3872 89.6378 28.1542 89.6378 27.8565C89.6378 27.7011 89.599 27.5717 89.5213 27.4682C89.4437 27.3517 89.3272 27.2481 89.1719 27.1575C89.0165 27.0669 88.8224 26.9892 88.5894 26.9245L86.7838 26.4197C85.9165 26.1738 85.2499 25.779 84.784 25.2354C84.318 24.6788 84.085 24.0251 84.085 23.2744C84.085 22.6143 84.2533 22.0383 84.5898 21.5464C84.9263 21.0546 85.3988 20.6727 86.0071 20.4009C86.6155 20.1162 87.3144 19.9738 88.104 19.9738C89.1395 19.9738 90.0456 20.2197 90.8222 20.7116C91.6117 21.1905 92.1683 21.87 92.4919 22.7502L90.3368 23.7598C90.1815 23.3197 89.8967 22.9702 89.4825 22.7114C89.0813 22.4396 88.6218 22.3036 88.104 22.3036C87.7286 22.3036 87.4309 22.3813 87.2109 22.5366C87.0038 22.692 86.9003 22.9055 86.9003 23.1773C86.9003 23.3197 86.9391 23.4492 87.0167 23.5656C87.0944 23.6821 87.2174 23.7857 87.3856 23.8763C87.5669 23.9669 87.7869 24.051 88.0458 24.1287L89.7349 24.6335C90.6151 24.8924 91.2881 25.2872 91.7541 25.8178C92.2201 26.3356 92.4531 26.9763 92.4531 27.74C92.4531 28.4001 92.2783 28.9761 91.9289 29.4679C91.5923 29.9598 91.1199 30.3481 90.5115 30.6329C89.9032 30.9047 89.1848 31.0406 88.3564 31.0406ZM98.3486 31.0406C97.1836 31.0406 96.1675 30.7688 95.3003 30.2252C94.446 29.6686 93.8636 28.9243 93.5529 27.9924L95.6886 26.9828C95.9605 27.5523 96.3293 27.9988 96.7953 28.3224C97.2613 28.646 97.779 28.8078 98.3486 28.8078C98.7628 28.8078 99.0799 28.7237 99.2999 28.5554C99.52 28.3872 99.63 28.1542 99.63 27.8565C99.63 27.7011 99.5911 27.5717 99.5135 27.4682C99.4358 27.3517 99.3193 27.2481 99.164 27.1575C99.0087 27.0669 98.8145 26.9892 98.5815 26.9245L96.7759 26.4197C95.9087 26.1738 95.2421 25.779 94.7761 25.2354C94.3101 24.6788 94.0772 24.0251 94.0772 23.2744C94.0772 22.6143 94.2454 22.0383 94.582 21.5464C94.9185 21.0546 95.3909 20.6727 95.9993 20.4009C96.6076 20.1162 97.3066 19.9738 98.0962 19.9738C99.1316 19.9738 100.038 20.2197 100.814 20.7116C101.604 21.1905 102.16 21.87 102.484 22.7502L100.329 23.7598C100.174 23.3197 99.8888 22.9702 99.4747 22.7114C99.0734 22.4396 98.6139 22.3036 98.0962 22.3036C97.7208 22.3036 97.4231 22.3813 97.203 22.5366C96.9959 22.692 96.8924 22.9055 96.8924 23.1773C96.8924 23.3197 96.9312 23.4492 97.0089 23.5656C97.0865 23.6821 97.2095 23.7857 97.3778 23.8763C97.559 23.9669 97.779 24.051 98.0379 24.1287L99.7271 24.6335C100.607 24.8924 101.28 25.2872 101.746 25.8178C102.212 26.3356 102.445 26.9763 102.445 27.74C102.445 28.4001 102.27 28.9761 101.921 29.4679C101.584 29.9598 101.112 30.3481 100.504 30.6329C99.8953 30.9047 99.1769 31.0406 98.3486 31.0406ZM104.399 30.8076V16.3431H109.933C110.929 16.3431 111.81 16.5178 112.573 16.8673C113.35 17.2168 113.958 17.7345 114.398 18.4205C114.838 19.1066 115.058 19.9544 115.058 20.964C115.058 21.9477 114.832 22.789 114.379 23.488C113.926 24.174 113.318 24.6917 112.554 25.0412L115.854 30.8076H112.476L108.904 24.4199L110.845 25.5654H107.409V30.8076H104.399ZM107.409 22.9444H109.952C110.379 22.9444 110.748 22.8602 111.059 22.692C111.37 22.5237 111.609 22.2907 111.777 21.993C111.958 21.6953 112.049 21.3523 112.049 20.964C112.049 20.5627 111.958 20.2132 111.777 19.9155C111.609 19.6178 111.37 19.3849 111.059 19.2166C110.748 19.0483 110.379 18.9642 109.952 18.9642H107.409V22.9444ZM121.81 31.0406C120.761 31.0406 119.803 30.8011 118.936 30.3222C118.082 29.8433 117.396 29.1897 116.878 28.3613C116.373 27.5199 116.121 26.5686 116.121 25.5072C116.121 24.4329 116.373 23.4815 116.878 22.6531C117.396 21.8247 118.082 21.1711 118.936 20.6922C119.803 20.2132 120.761 19.9738 121.81 19.9738C122.858 19.9738 123.809 20.2132 124.664 20.6922C125.518 21.1711 126.197 21.8247 126.702 22.6531C127.22 23.4815 127.479 24.4329 127.479 25.5072C127.479 26.5686 127.22 27.5199 126.702 28.3613C126.197 29.1897 125.518 29.8433 124.664 30.3222C123.809 30.8011 122.858 31.0406 121.81 31.0406ZM121.81 28.4195C122.34 28.4195 122.8 28.2966 123.188 28.0506C123.589 27.8047 123.9 27.4617 124.12 27.0216C124.353 26.5815 124.469 26.0767 124.469 25.5072C124.469 24.9377 124.353 24.4393 124.12 24.0122C123.9 23.5721 123.589 23.2291 123.188 22.9832C122.8 22.7243 122.34 22.5949 121.81 22.5949C121.279 22.5949 120.813 22.7243 120.412 22.9832C120.01 23.2291 119.693 23.5721 119.46 24.0122C119.24 24.4393 119.13 24.9377 119.13 25.5072C119.13 26.0767 119.24 26.5815 119.46 27.0216C119.693 27.4617 120.01 27.8047 120.412 28.0506C120.813 28.2966 121.279 28.4195 121.81 28.4195ZM132.476 31.0406C131.712 31.0406 131.052 30.9176 130.495 30.6717C129.939 30.4258 129.512 30.0763 129.214 29.6233C128.916 29.1573 128.767 28.6072 128.767 27.973C128.767 27.3776 128.903 26.8533 129.175 26.4003C129.447 25.9343 129.861 25.546 130.418 25.2354C130.987 24.9247 131.693 24.7047 132.534 24.5753L135.776 24.051V26.1867L133.058 26.6721C132.644 26.7498 132.327 26.8857 132.107 27.0798C131.887 27.2611 131.777 27.5264 131.777 27.8759C131.777 28.1995 131.9 28.4519 132.146 28.6331C132.392 28.8143 132.696 28.9049 133.058 28.9049C133.537 28.9049 133.958 28.8014 134.32 28.5943C134.683 28.3872 134.961 28.1089 135.155 27.7594C135.362 27.397 135.466 27.0022 135.466 26.575V23.818C135.466 23.4168 135.304 23.0803 134.98 22.8084C134.67 22.5366 134.243 22.4007 133.699 22.4007C133.181 22.4007 132.722 22.5431 132.32 22.8279C131.932 23.1126 131.647 23.488 131.466 23.954L129.136 22.8473C129.343 22.2519 129.673 21.7406 130.127 21.3135C130.58 20.8863 131.123 20.5563 131.757 20.3233C132.392 20.0903 133.084 19.9738 133.835 19.9738C134.728 19.9738 135.518 20.1356 136.204 20.4592C136.89 20.7828 137.42 21.2358 137.796 21.8183C138.184 22.3878 138.378 23.0544 138.378 23.818V30.8076H135.66V29.0991L136.32 28.9826C136.009 29.4485 135.666 29.8368 135.291 30.1475C134.916 30.4452 134.495 30.6652 134.029 30.8076C133.563 30.9629 133.045 31.0406 132.476 31.0406ZM145.504 31.0406C144.468 31.0406 143.543 30.7947 142.727 30.3028C141.912 29.811 141.265 29.1444 140.786 28.303C140.32 27.4617 140.087 26.5297 140.087 25.5072C140.087 24.4717 140.326 23.5398 140.805 22.7114C141.284 21.87 141.931 21.2034 142.747 20.7116C143.562 20.2197 144.475 19.9738 145.484 19.9738C146.261 19.9738 146.947 20.1226 147.542 20.4203C148.151 20.7051 148.63 21.1128 148.979 21.6435L148.533 22.226V16.1101H151.445V30.8076H148.727V28.8661L148.999 29.4679C148.636 29.9857 148.144 30.3805 147.523 30.6523C146.902 30.9112 146.229 31.0406 145.504 31.0406ZM145.853 28.4195C146.384 28.4195 146.85 28.2966 147.251 28.0506C147.652 27.8047 147.963 27.4617 148.183 27.0216C148.416 26.5815 148.533 26.0767 148.533 25.5072C148.533 24.9377 148.416 24.4329 148.183 23.9928C147.963 23.5527 147.652 23.2097 147.251 22.9638C146.85 22.7178 146.384 22.5949 145.853 22.5949C145.323 22.5949 144.844 22.7243 144.416 22.9832C144.002 23.2291 143.679 23.5721 143.446 24.0122C143.213 24.4393 143.096 24.9377 143.096 25.5072C143.096 26.0767 143.213 26.5815 143.446 27.0216C143.679 27.4617 144.002 27.8047 144.416 28.0506C144.844 28.2966 145.323 28.4195 145.853 28.4195ZM157.733 31.0406C156.568 31.0406 155.552 30.7688 154.684 30.2252C153.83 29.6686 153.248 28.9243 152.937 27.9924L155.073 26.9828C155.344 27.5523 155.713 27.9988 156.179 28.3224C156.645 28.646 157.163 28.8078 157.733 28.8078C158.147 28.8078 158.464 28.7237 158.684 28.5554C158.904 28.3872 159.014 28.1542 159.014 27.8565C159.014 27.7011 158.975 27.5717 158.898 27.4682C158.82 27.3517 158.703 27.2481 158.548 27.1575C158.393 27.0669 158.199 26.9892 157.966 26.9245L156.16 26.4197C155.293 26.1738 154.626 25.779 154.16 25.2354C153.694 24.6788 153.461 24.0251 153.461 23.2744C153.461 22.6143 153.629 22.0383 153.966 21.5464C154.303 21.0546 154.775 20.6727 155.383 20.4009C155.992 20.1162 156.691 19.9738 157.48 19.9738C158.516 19.9738 159.422 20.2197 160.198 20.7116C160.988 21.1905 161.544 21.87 161.868 22.7502L159.713 23.7598C159.558 23.3197 159.273 22.9702 158.859 22.7114C158.457 22.4396 157.998 22.3036 157.48 22.3036C157.105 22.3036 156.807 22.3813 156.587 22.5366C156.38 22.692 156.276 22.9055 156.276 23.1773C156.276 23.3197 156.315 23.4492 156.393 23.5656C156.471 23.6821 156.594 23.7857 156.762 23.8763C156.943 23.9669 157.163 24.051 157.422 24.1287L159.111 24.6335C159.991 24.8924 160.664 25.2872 161.13 25.8178C161.596 26.3356 161.829 26.9763 161.829 27.74C161.829 28.4001 161.654 28.9761 161.305 29.4679C160.968 29.9598 160.496 30.3481 159.888 30.6329C159.279 30.9047 158.561 31.0406 157.733 31.0406Z" fill="#292929"/>
<defs>
<linearGradient id="paint0_linear_901_4501" x1="21.5" y1="0.271484" x2="21.5" y2="44.3315" gradientUnits="userSpaceOnUse">
<stop stop-color="#60E15D"/>
<stop offset="1" stop-color="#256FFF"/>
</linearGradient>
</defs>
</svg>
