<svg width="17" height="21" viewBox="0 0 17 21" fill="none" xmlns="http://www.w3.org/2000/svg">
<path d="M14.4833 11.6458V11.7165L14.55 11.7401C15.1384 11.9481 15.6481 12.3331 16.0091 12.8422C16.3702 13.3512 16.5649 13.9595 16.5667 14.5836V16.6667C16.5667 16.9164 16.4675 17.1559 16.2909 17.3325C16.1143 17.5091 15.8747 17.6083 15.625 17.6083H12.3542H12.2777L12.2577 17.6821C12.0235 18.5436 11.5124 19.3041 10.8032 19.8463C10.094 20.3885 9.22607 20.6823 8.33333 20.6823C7.4406 20.6823 6.57266 20.3885 5.86344 19.8463C5.15422 19.3041 4.64312 18.5436 4.409 17.6821L4.38895 17.6083H4.3125H1.04167C0.791921 17.6083 0.552405 17.5091 0.375808 17.3325C0.199211 17.1559 0.1 16.9164 0.1 16.6667V14.5835C0.101783 13.9594 0.296529 13.3512 0.657546 12.8422C1.01859 12.3331 1.52825 11.9481 2.11667 11.7401L2.18333 11.7165V11.6458V8.33343C2.18481 6.88114 2.70019 5.47621 3.6382 4.36748C4.57622 3.25874 5.87635 2.51773 7.30833 2.27568L7.39167 2.2616V2.17708V1.04167C7.39167 0.791921 7.49088 0.552405 7.66748 0.375808C7.84407 0.199211 8.08359 0.1 8.33333 0.1C8.58308 0.1 8.8226 0.199211 8.99919 0.375808C9.17579 0.552405 9.275 0.791921 9.275 1.04167V2.17708V2.2616L9.35833 2.27568C10.7903 2.51773 12.0904 3.25874 13.0285 4.36748C13.9665 5.47621 14.4819 6.88114 14.4833 8.33343V11.6458ZM12.5 11.5583H12.6V11.4583V8.33333C12.6 7.20174 12.1505 6.1165 11.3503 5.31634C10.5502 4.51619 9.46492 4.06667 8.33333 4.06667C7.20174 4.06667 6.1165 4.51619 5.31634 5.31634C4.51619 6.1165 4.06667 7.20174 4.06667 8.33333V11.4583V11.5583H4.16667H12.5ZM6.54167 17.6083H6.36847L6.45506 17.7583C6.64557 18.0883 6.91912 18.3627 7.24852 18.5542C7.57792 18.7457 7.95171 18.8477 8.33273 18.85L8.33394 18.85C8.71496 18.8477 9.08874 18.7457 9.41815 18.5542C9.74755 18.3627 10.0211 18.0883 10.2116 17.7583L10.2982 17.6083H10.125H6.54167ZM14.5833 15.725H14.6833V15.625V14.5833C14.6833 14.2805 14.5631 13.9902 14.3489 13.7761C14.1348 13.5619 13.8445 13.4417 13.5417 13.4417H3.125C2.82221 13.4417 2.53182 13.5619 2.31772 13.7761C2.10362 13.9902 1.98333 14.2805 1.98333 14.5833V15.625V15.725H2.08333H14.5833Z" fill="#8B8B8B" stroke="white" stroke-width="0.2"/>
</svg>
